# xmcd
# 
# Track frame offsets:
#     183
#     19608
#     36530
#     52733
#     72765
#     91933
#     113190
#     130743
#     143548
#     166620
#     185953
#     199993
#     217723
#     234113
#     255068
#     276335
# 
# Disc length: 3804
# 
# Revision: 34
# Processed by: cddbd v1.5.2PL0 Copyright (c) Steve Scherf et al.
# Submitted via: fre:ac v1.0.31
# 
DISCID=cf0eda10
DTITLE=Mike Oldfield - The Best Of Mike Oldfield Elements
DYEAR=1993
DGENRE=Blues
TTITLE0=Tubular Bells (opening theme)
TTITLE1=Family Man
TTITLE2=Moonlight Shadow
TTITLE3=Heaven's Open
TTITLE4=Five Miles Out
TTITLE5=To France
TTITLE6=Foreign Affair
TTITLE7=In Dulci Jubilo
TTITLE8=Shadow On The Wall
TTITLE9=Islands
TTITLE10=Etude
TTITLE11=Sentinel
TTITLE12=Ommadawn (excerpt)
TTITLE13=Incantations (part four - excerpt)
TTITLE14=Amarok (excerpt)
TTITLE15=Portsmouth
EXTD=YEAR: 1993
EXTT0=
EXTT1=
EXTT2=
EXTT3=
EXTT4=
EXTT5=
EXTT6=
EXTT7=
EXTT8=
EXTT9=
EXTT10=
EXTT11=
EXTT12=
EXTT13=
EXTT14=
EXTT15=
PLAYORDER=
